<svg t="1706101020912" class="icon" viewBox="0 0 1024 1024" version="1.1" xmlns="http://www.w3.org/2000/svg" p-id="9443" width="200" height="200"><path d="M464.261967 1024a23.549056 23.549056 0 0 0-5.055368-1.983752 199.783027 199.783027 0 0 1-29.500312-4.991376c-26.684664-8.830896-53.049369-18.813648-79.670042-28.220473-6.3992-2.367704-8.510936-5.823272-4.863392-12.414448a50.041745 50.041745 0 0 0 4.735408-11.262592 344.788901 344.788901 0 0 0 15.614049-128.55993c-2.367704-22.461192-6.015248-44.794401-9.534808-67.063617-1.407824-8.830896-4.223472-17.469816-6.783153-27.708536a499.137608 499.137608 0 0 1-123.376577 149.03737 480.451944 480.451944 0 0 1-25.020873-281.948756 92.724409 92.724409 0 0 1-72.822897 27.388576c4.223472-23.549056 6.847144-46.714161 12.7984-69.047369a397.582302 397.582302 0 0 1 74.486689-144.301962l-45.626296-7.359081a404.301462 404.301462 0 0 1 120.432946-154.988626c0.895888 17.853768 0.767904 35.131609 2.815648 52.153481a89.140857 89.140857 0 0 0 21.75728 53.049369 36.283465 36.283465 0 0 0 17.5978 12.7984 279.645044 279.645044 0 0 1-6.015248-77.878265 136.430946 136.430946 0 0 1 5.567304-31.996001 29.180352 29.180352 0 0 1 30.652169-20.47744 102.387202 102.387202 0 0 1 43.066616 18.173728c1.087864 0.831896 3.135608 0.511936 5.247344 0.767904a69.303337 69.303337 0 0 0-52.537432-48.377953c3.711536-1.983752 5.631296-3.327584 7.743032-4.15948a529.469816 529.469816 0 0 1 115.825522-35.323584 524.734408 524.734408 0 0 1 93.428321-6.3992 20.413448 20.413448 0 0 1 8.254968 1.91976 152.812898 152.812898 0 0 1 49.657793 35.643544 160.939883 160.939883 0 0 1 10.942632 16.573929 83.637545 83.637545 0 0 0-2.815648-43.066617 11.070616 11.070616 0 0 1 1.663792 0 340.565429 340.565429 0 0 1 118.257218 58.360705 7.999 7.999 0 0 1 2.943632 5.375328 210.021747 210.021747 0 0 0 15.870016 67.191601c0.895888 2.431696 2.047744 4.7994 3.007624 7.295088s1.663792 4.7994 3.007624 8.894888a631.409074 631.409074 0 0 0-106.290713-86.645169l-11.710537 48.121985c-28.028496-16.573928-54.265217-32.507937-80.821897-47.610049a38.011249 38.011249 0 0 0-31.996-4.607424 528.95788 528.95788 0 0 0-52.089489 18.685664 139.246594 139.246594 0 0 0-50.361705 36.987377 21.75728 21.75728 0 0 0-2.23972 4.671416l24.188976 8.190976-72.758905 51.193601 41.082865 3.135608-4.15948 23.293088c8.702912-3.263592 10.942632 1.983752 12.7984 8.446944a67.639545 67.639545 0 0 0 58.936633 43.066617h91.316585a76.790401 76.790401 0 0 1 37.115361 6.3992c1.91976 0.95988 5.75928-1.023872 8.126984-2.623672 0.63992-0.383952 0-4.735408-1.407824-6.3992a197.415323 197.415323 0 0 0-52.537433-52.601425 15.230096 15.230096 0 0 0-6.975128-2.623672c-21.43732-1.023872-42.874641-1.27984-63.992001-2.87964a67.767529 67.767529 0 0 1-40.890888-17.405824c-8.766904-7.935008-8.510936-8.766904 0.767904-15.166105a85.557305 85.557305 0 0 1 55.801024-19.1976 104.178978 104.178978 0 0 1 51.897513 20.733408 15.486064 15.486064 0 0 0 16.573928 2.815648c11.006624-4.991376 21.629296-10.750656 29.500313-14.654168-2.623672 7.999-5.887264 19.1976-9.982752 30.268217a8.254968 8.254968 0 0 0 3.135608 11.006624 355.987502 355.987502 0 0 1 30.71616 29.884264 364.050494 364.050494 0 0 1 21.629297 30.204225 217.188851 217.188851 0 0 1 106.866641-6.3992 395.022622 395.022622 0 0 1-75.126609-90.16473l38.907137 25.596801a46.970129 46.970129 0 0 1 6.3992-12.15848c3.711536-3.391576 9.27884-7.871016 13.182352-7.167105 9.790776 1.727784 13.694288 10.942632 15.614048 20.029497 1.5998 7.743032 3.327584 16.31796-9.342832 20.605424l28.156481 34.619673 2.943632-0.703912 5.75928-22.205225 2.687664-0.95988c15.294088 29.308336 31.996 58.040745 45.43432 88.180978a349.588301 349.588301 0 0 1 28.668417 98.163729c1.343832 9.982752 3.51956 19.773528 5.311336 29.628297v73.334833c-0.575928 0.895888-1.5998 1.663792-1.791776 2.623672-3.007624 18.813648-5.183352 37.755281-9.022872 56.440945-3.263592 16.061992-8.382952 31.996-12.7984 49.145856-15.742032-28.15648-20.541432-32.443945-32.571929-30.268216a330.838645 330.838645 0 0 1-147.821522 252.704412l-13.502312-58.552681c-8.894888 5.567304-15.806024 9.534808-22.333209 14.07824a295.259093 295.259093 0 0 1-109.554305 46.522185l-26.492689 5.503312z m266.782652-274.333708a157.612298 157.612298 0 0 0 15.806025-9.022872 90.548681 90.548681 0 0 0 30.268216-43.642545 81.397825 81.397825 0 0 0 1.343832-68.855393 22.269216 22.269216 0 0 0-18.813648-12.15848c-5.631296 0.703912-11.326584 1.023872-16.95788 1.791776a75.062617 75.062617 0 0 0-22.397201 3.83952 115.185602 115.185602 0 0 0-24.252968 17.469816 124.40045 124.40045 0 0 1-48.185977 23.485064c-4.927384 1.407824-10.046744 2.495688-14.846144 3.647544 8.126984 17.405824 15.934008 33.595801 23.293088 50.169729 1.983752 4.607424 4.607424 6.3992 9.214848 5.503312a98.227722 98.227722 0 0 0 49.145857-22.781152c5.055368-4.735408 10.622672-8.830896 15.998-13.310336a135.407074 135.407074 0 0 1 0.383952 63.864017z m-67.319585-276.189477c-31.164104 17.021872-62.200225 34.235721-93.044369 51.897513a11.83852 11.83852 0 0 0-5.567304 17.021872c3.903512 7.423072 7.807024 14.910136 11.83852 22.269217 9.5988 17.533808 19.1976 35.131609 29.052368 52.601425 3.1996 5.695288 7.231096 11.070616 14.782153 9.91876a105.52281 105.52281 0 0 0 14.07824-2.943632 185.576803 185.576803 0 0 0 59.000625-32.699913 440.520935 440.520935 0 0 0 37.819272-35.579552 6.3992 6.3992 0 0 0 1.215848-3.83952v-25.596801h0.383952a92.916385 92.916385 0 0 1 0-13.374328 12.094488 12.094488 0 0 0-7.807024-13.502312 138.542682 138.542682 0 0 1-29.43632-20.029497c-7.487064-7.35908-12.222472-11.070616-18.173728-11.070616a31.292088 31.292088 0 0 0-14.142233 4.927384z m118.833146 18.365705a29.308336 29.308336 0 0 0-15.35808 31.996c0.575928 3.711536-1.343832 7.67904-1.087864 11.390576 0.575928 9.726784-3.391576 19.965504 3.711536 29.116361 12.7984 16.445944 25.148856 33.275841 38.395201 50.489689a154.668666 154.668666 0 0 0-6.3992-138.606675 170.666667 170.666667 0 0 1-19.261593 15.870017zM285.212348 91.828521l73.398826 48.185977L343.445069 42.938633l104.946882 75.766529 30.07624-113.073866h3.263593l53.689288 93.04437c2.495688 4.351456 3.391576 5.695288 7.295088 0.575928 18.749656-24.95688 38.395201-49.337833 57.272841-73.974754 5.055368-6.3992 9.726784-13.566304 14.718161-20.285464A47.418073 47.418073 0 0 1 620.08249 0c0.895888 38.779153 1.91976 75.830521 2.87964 115.953506l63.416073-70.391201a350.932133 350.932133 0 0 0-23.933009 119.409074 403.149606 403.149606 0 0 0-328.150981 40.506936 293.659293 293.659293 0 0 0-49.145857-113.649794z" fill="#333333" p-id="9444"></path></svg>